# AST/ASF file generated using VICON BodyLanguage
# -----------------------------------------------
:version 1.10
:name VICON
:units
  mass 1.0
  length 0.45
  angle deg
:documentation
   .ast/.asf automatically generated from VICON data using
   VICON BodyBuilder and BodyLanguage model FoxedUp or BRILLIANT.MOD
:root
   order TX TY TZ RX RY RZ
   axis XYZ
   position 0 0 0  
   orientation 0 0 0 
:bonedata
  begin
     id 1 
     name lhipjoint
     direction 0.521689 -0.742065 0.420928 
     length 2.47002 
     axis 0 0 0  XYZ
  end
  begin
     id 2 
     name lfemur
     direction 0.34202 -0.939693 0  
     length 7.24654  
     axis 0 0 20  XYZ
    dof rx ry rz
    limits (-160.0 20.0)
           (-70.0 70.0)
           (-60.0 70.0)
  end
  begin
     id 3 
     name ltibia
     direction 0.34202 -0.939693 0   
     length 8.04849   
     axis 0 0 20   XYZ
    dof rx
    limits (-10.0 170.0)
  end
  begin
     id 4 
     name lfoot
     direction 0.0745411 -0.2048 0.975961   
     length 1.72367   
     axis -90 7.62852e-016 20   XYZ
    dof rx rz
    limits (-45.0 90.0)
           (-70.0 20.0)
  end
  begin
     id 5 
     name ltoes
     direction 1.53556e-011 -4.21901e-011 1   
     length 0.87311   
     axis -90 7.62852e-016 20   XYZ
    dof rx
    limits (-90.0 20.0)
  end
  begin
     id 6 
     name rhipjoint
     direction -0.52849 -0.738415 0.418857   
     length 2.48223  
     axis 0 0 0  XYZ 
  end
  begin
     id 7 
     name rfemur
     direction -0.34202 -0.939693 0   
     length 7.15571   
     axis 0 0 -20   XYZ
    dof rx ry rz
    limits (-160.0 20.0)
           (-70.0 70.0)
           (-70.0 60.0)
  end
  begin
     id 8 
     name rtibia
     direction -0.34202 -0.939693 0   
     length 7.81659   
     axis 0 0 -20   XYZ
    dof rx
    limits (-10.0 170.0)
 end
 begin
     id 9 
     name rfoot
     direction -0.0917348 -0.252039 0.963359   
     length 1.84382  
     axis -90 -7.62852e-016 -20   XYZ
    dof rx rz
    limits (-45.0 90.0)
           (-20.0 70.0)
  end
  begin
     id 10 
     name rtoes
     direction -1.53551e-011 -4.21879e-011 1   
     length 0.927771   
     axis -90 -7.62852e-016 -20   XYZ
    dof rx
    limits (-90.0 20.0)
  end
  begin
     id 11 
     name lowerback
     direction 0.00583058 0.999822 0.0179296   
     length 2.1429   
     axis 0 0 0   XYZ
    dof rx ry rz
    limits (-20.0 45.0)
           (-30.0 30.0)
           (-30.0 30.0)
  end
  begin
     id 12 
     name upperback
     direction -0.0137999 0.999752 -0.0175071   
     length 2.14252   
     axis 0 0 0   XYZ
    dof rx ry rz
    limits (-20.0 45.0)
           (-30.0 30.0)
           (-30.0 30.0)
  end
  begin
     id 13 
     name thorax
     direction -0.0158036 0.99955 -0.0254909   
     length 2.1383   
     axis 0 0 0   XYZ
    dof rx ry rz
    limits (-20.0 45.0)
           (-30.0 30.0)
           (-30.0 30.0)
  end
  begin
     id 14 
     name lowerneck
     direction -0.0101179 0.999403 -0.0330262   
     length 1.65808   
     axis 0 0 0   XYZ
    dof rx ry rz
    limits (-20.0 45.0)
           (-30.0 30.0)
           (-30.0 30.0)
  end
  begin
     id 15 
     name upperneck
     direction 0.0497734 0.995978 -0.074501   
     length 1.5897   
     axis 0 0 0   XYZ
    dof rx ry rz
    limits (-20.0 45.0)
           (-30.0 30.0)
           (-30.0 30.0)
  end
  begin
     id 16
     name head
     direction 0.0189524 0.999519 -0.0245438  
     length 1.74024  
     axis 0 0 0   XYZ
    dof rx ry rz
    limits (-20.0 45.0)
           (-30.0 30.0)
           (-30.0 30.0)
  end
  begin
     id 17 
     name lclavicle
     direction 0.945604 0.324422 0.0241537  
     length 3.59089  
     axis 0 0 0   XYZ
    dof ry rz
    limits (-20.0 10.0)
           (0.0 20.0)
  end
  begin
     id 18 
     name lhumerus
     direction 1 -4.48964e-011 -2.63524e-027   
     length 5.2391   
     axis 180 -30 -90   XYZ
    dof rx ry rz
    limits (-60.0 90.0)
           (-90.0 90.0)
           (-90.0 90.0)
  end
  begin
     id 19
     name lradius
     direction 1 -4.48969e-011 3.86978e-028   
     length 3.31467   
     axis 180 -30 -90   XYZ
    dof rx
    limits (-10.0 170.0)
  end
  begin
     id 20
     name lwrist
     direction 1 -4.48963e-011 7.20928e-028   
     length 1.65734   
     axis -5.52449e-016 90 90   XYZ
    dof ry
    limits (-180.0 0.0)
 end
  begin
     id 21 
     name lhand
     direction 1 -4.48964e-011 1.44186e-027   
     length 0.9659   
     axis -9.20027e-016 90 90   XYZ
    dof rx rz
    limits (-90.0 90.0)
           (-45.0 45.0)
  end
  begin
     id 22 
     name lfingers
     direction 1 -4.48965e-011 2.88371e-027   
     length 0.778733   
     axis -1.84005e-015 90 90   XYZ
    dof rx
    limits (0.0 90.0)
  end
  begin
     id 23
     name lthumb
     direction 0.707107 -6.34931e-011 0.707107   
     length 1.11811   
     axis -90 45 2.85299e-015   XYZ
    dof rx rz
    limits (-45.0 45.0)
           (-45.0 45.0)
  end
  begin
     id 24 
     name rclavicle
     direction -0.923762 0.370785 0.0958234   
     length 3.54196  
     axis 0 0 0   XYZ 
    dof ry rz
    limits (-10.0 20.0)
           (-20.0 0.0)
  end
  begin
     id 25 
     name rhumerus
     direction -1 -4.48966e-011 1.18702e-017  
     length 5.30252   
     axis 180 30 90   XYZ
    dof rx ry rz
    limits (-90.0 60.0)
           (-90.0 90.0)
           (-90.0 90.0)
  end
  begin
     id 26 
     name rradius
     direction -1 -4.48966e-011 4.46736e-027   
     length 3.67875   
     axis 180 30 90   XYZ
    dof rx
    limits (-10.0 170.0)
  end
  begin
     id 27 
     name rwrist
     direction -1 -4.48966e-011 7.20928e-028   
     length 1.83937   
     axis -5.52449e-016 -90 -90   XYZ
    dof ry
    limits (-180.0 0.0)
  end
  begin
     id 28
     name rhand
     direction -1 -4.48973e-011 1.44186e-027   
     length 0.594811   
     axis -9.20027e-016 -90 -90   XYZ
    dof rx rz
    limits (-90.0 90.0)
           (-45.0 45.0)
  end
  begin
     id 29
     name rfingers
     direction -1 -4.48963e-011 2.88371e-027   
     length 0.479552   
     axis -1.84005e-015 -90 -90   XYZ
    dof rx
    limits (0.0 90.0)
  end
  begin
     id 30
     name rthumb
     direction -0.707107 -6.34932e-011 0.707107   
     length 0.688544   
     axis -90 -45 -2.85299e-015   XYZ
    dof rx rz
    limits (-45.0 45.0)
           (-45.0 45.0)
  end
:hierarchy
  begin
    root lhipjoint rhipjoint lowerback
    lhipjoint lfemur
    lfemur ltibia
    ltibia lfoot
    lfoot ltoes
    rhipjoint rfemur
    rfemur rtibia
    rtibia rfoot
    rfoot rtoes
    lowerback upperback
    upperback thorax
    thorax lowerneck lclavicle rclavicle
    lowerneck upperneck
    upperneck head
    lclavicle lhumerus
    lhumerus lradius
    lradius lwrist
    lwrist lhand lthumb
    lhand lfingers
    rclavicle rhumerus
    rhumerus rradius
    rradius rwrist
    rwrist rhand rthumb
    rhand rfingers
  end

#!OML:ASF E:\acrobat2\Project_11_07_03\Capture day 1\Session 1\Acrobat.ASF
:FULLY-SPECIFIED
:DEGREES
1
root 8.91536 17.9595 -32.2245 55.845 -89.4515 -50.5833
lowerback -6.52127 0.715745 5.64808
upperback -3.38985 0.565738 -3.41392
thorax 0.22895 0.149783 -6.71157
lowerneck -4.49994 -0.298546 0.937252
upperneck 5.49249 -0.842021 5.09789
head 2.54905 -0.266197 1.44401
rclavicle 6.5102e-015 -5.08889e-014
rhumerus -14.2619 -28.6977 -9.71298
rradius 20.8428
rwrist 20.087
rhand -6.29 -49.8521
rfingers 7.12502
rthumb 19.5536 -78.8888
lclavicle 6.5102e-015 -5.08889e-014
lhumerus 2.4724 6.20328 2.612
lradius 21.472
lwrist 7.91931
lhand -7.77958 -5.72955
lfingers 7.12502
lthumb 18.1209 23.4463
rfemur 7.81374 16.4452 13.9354
rtibia -3.24047
rfoot -22.3849 -29.1489
rtoes 0.498803
lfemur 7.66699 -9.65554 -7.28469
ltibia -2.80183
lfoot -29.0978 9.22048
ltoes 31.0554
2
root 8.91732 17.9606 -32.2252 73.6294 -89.2048 -68.3294
lowerback -6.80205 0.700456 4.53717
upperback -3.22832 0.600025 -2.34876
thorax 0.545473 0.206217 -4.94573
lowerneck -4.62714 -0.347385 0.510653
upperneck 5.41126 -0.810692 4.32178
head 2.53892 -0.276096 1.26736
rclavicle 2.48481e-016 -1.39149e-014
rhumerus -13.4559 -28.2951 -8.74059
rradius 20.8435
rwrist 19.4682
rhand -6.13612 -49.9031
rfingers 7.12502
rthumb 19.7015 -78.9247
lclavicle 2.48481e-016 -1.39149e-014
lhumerus 2.05868 7.63662 4.27761
lradius 21.1569
lwrist 6.84896
lhand -7.86897 -5.97173
lfingers 7.12502
lthumb 18.0349 23.2121
rfemur 7.76385 16.7088 14.3409
rtibia -3.21555
rfoot -22.8078 -29.3337
rtoes 0.54052
lfemur 7.63508 -9.41959 -6.78378
ltibia -2.79387
lfoot -29.0848 8.41899
ltoes 33.5007
3
root 8.91603 17.9607 -32.2252 74.7393 -89.2164 -69.4145
lowerback -7.03464 0.628185 3.71414
upperback -3.10298 0.543717 -1.75348
thorax 0.788996 0.199582 -3.85973
lowerneck -4.72448 -0.330719 0.200461
upperneck 5.36252 -0.728189 3.86365
head 2.53627 -0.251468 1.17616
rclavicle -1.56543e-015 3.97569e-016
rhumerus -12.8055 -28.7003 -8.33321
rradius 20.8033
rwrist 19.7773
rhand -6.04782 -49.9252
rfingers 7.12502
rthumb 19.7864 -78.9381
lclavicle -1.56543e-015 3.97569e-016
lhumerus 1.75344 8.80791 5.21914
lradius 20.9201
lwrist 6.10765
lhand -7.65535 -5.85564
lfingers 7.12502
lthumb 18.2404 23.3091
rfemur 7.75378 16.751 14.3331
rtibia -3.2419
rfoot -22.7019 -29.2984
rtoes 0.774612
lfemur 7.61527 -9.50403 -6.8177
ltibia -2.77757
lfoot -29.1451 8.49182
ltoes 33.3062
4
root 8.91368 17.9603 -32.2239 73.5618 -89.2754 -68.2291
lowerback -7.17682 0.553566 3.51609
upperback -3.02994 0.452345 -1.66
thorax 0.933212 0.160818 -3.65704
lowerneck -4.80648 -0.279945 0.16963
upperneck 5.37841 -0.651665 3.76203
head 2.55441 -0.215428 1.15188
rclavicle 3.45388e-015 -1.43125e-014
rhumerus -12.4602 -29.2734 -8.48955
rradius 20.7381
rwrist 20.2929
rhand -6.06342 -49.8333
rfingers 7.12502
rthumb 19.7714 -78.8478
lclavicle 3.45388e-015 -1.43125e-014
lhumerus 1.52495 8.82395 5.2036
lradius 20.9267
lwrist 6.4631
lhand -7.63568 -5.597
lfingers 7.12502
lthumb 18.2594 23.566
rfemur 7.75543 16.6301 14.2194
rtibia -3.26875
rfoot -22.5317 -29.1046
rtoes 1.08114
lfemur 7.63375 -9.65503 -6.95289
ltibia -2.7868
lfoot -29.2709 8.56724
ltoes 33.1274
5
root 8.91367 17.9621 -32.2248 76.7714 -89.2774 -71.3976
lowerback -7.31424 0.54489 3.31496
upperback -2.9869 0.44873 -1.54278
thorax 1.05186 0.164315 -3.42139
lowerneck -4.87437 -0.289343 0.186974
upperneck 5.41982 -0.660003 3.65421
head 2.57989 -0.220915 1.11422
rclavicle -5.96354e-016 -4.37326e-015
rhumerus -12.3607 -29.5223 -8.42913
rradius 20.7511
rwrist 20.4438
rhand -6.21601 -49.7283
rfingers 7.12502
rthumb 19.6247 -78.7578
lclavicle -5.96354e-016 -4.37326e-015
lhumerus 1.39708 8.42379 5.22709
lradius 20.9587
lwrist 7.07761
lhand -7.87603 -5.54786
lfingers 7.12502
lthumb 18.0281 23.6366
rfemur 7.67872 16.6316 14.2105
rtibia -3.24251
rfoot -23.1022 -29.2321
rtoes 1.521
lfemur 7.57813 -9.52353 -6.90928
ltibia -2.77818
lfoot -29.1135 8.77936
ltoes 32.5023
6
root 8.91373 17.9647 -32.2272 81.3077 -89.2269 -75.8853
lowerback -7.68105 0.552346 2.28566
upperback -2.7914 0.512013 -0.765147
thorax 1.44926 0.215235 -2.02872
lowerneck -5.0378 -0.376814 -0.352889
upperneck 5.35122 -0.702458 3.25535
head 2.58815 -0.26165 1.07811
rclavicle -1.46604e-015 5.76476e-015
rhumerus -11.9618 -29.3122 -7.5298
rradius 20.8675
rwrist 19.9797
rhand -6.33587 -49.8149
rfingers 7.12502
rthumb 19.5095 -78.8561
lclavicle -1.46604e-015 5.76476e-015
lhumerus 1.19948 9.40274 6.50092
lradius 20.6959
lwrist 6.36846
lhand -8.03435 -5.78585
lfingers 7.12502
lthumb 17.8758 23.4126
rfemur 7.60934 16.789 14.3157
rtibia -3.21631
rfoot -24.7257 -29.6322
rtoes 3.13826
lfemur 7.51985 -9.38371 -6.79188
ltibia -2.78117
lfoot -28.962 8.99988
ltoes 31.8352
7
root 8.91257 17.9658 -32.2282 85.0112 -89.1519 -79.5843
lowerback -7.64527 0.581837 2.30456
upperback -2.84224 0.548777 -0.717231
thorax 1.37866 0.231732 -1.98698
lowerneck -5.03316 -0.385048 -0.396649
upperneck 5.41904 -0.719408 3.35326
head 2.6117 -0.267711 1.1173
rclavicle 4.05024e-015 -1.23246e-014
rhumerus -12.0184 -29.142 -7.45708
rradius 20.9002
rwrist 19.833
rhand -6.42846 -49.8684
rfingers 7.12502
rthumb 19.4204 -78.9186
lclavicle 4.05024e-015 -1.23246e-014
lhumerus 1.1584 9.32557 6.58063
lradius 20.7416
lwrist 6.48384
lhand -7.94906 -5.77238
lfingers 7.12502
lthumb 17.9579 23.4186
rfemur 7.60697 16.8738 14.4415
rtibia -3.20049
rfoot -25.5558 -29.826
rtoes 3.80253
lfemur 7.56481 -9.46819 -6.70155
ltibia -2.82511
lfoot -29.1449 8.80455
ltoes 32.5495
8
root 8.91149 17.9667 -32.2294 87.3306 -89.117 -81.8955
lowerback -7.62943 0.616311 2.31518
upperback -2.88651 0.593253 -0.71798
thorax 1.32663 0.252234 -1.99009
lowerneck -4.90378 -0.412246 -0.432868
upperneck 5.35823 -0.76029 3.48845
head 2.5698 -0.286824 1.16503
rclavicle 3.2551e-015 -3.97569e-015
rhumerus -12.0963 -29.1316 -7.41505
rradius 20.9093
rwrist 19.8091
rhand -6.48154 -49.9256
rfingers 7.12502
rthumb 19.3694 -78.9809
lclavicle 3.2551e-015 -3.97569e-015
lhumerus 1.21868 9.54847 6.68921
lradius 20.7795
lwrist 6.46524
lhand -7.63826 -5.65701
lfingers 7.12502
lthumb 18.2569 23.5062
rfemur 7.58672 16.8451 14.4762
rtibia -3.18367
rfoot -25.4347 -29.7879
rtoes 3.60286
lfemur 7.59257 -9.54409 -6.65879
ltibia -2.85102
lfoot -29.3429 8.60046
ltoes 33.2347
9
root 8.90999 17.9679 -32.2302 89.2172 -89.0995 -83.7503
lowerback -7.63884 0.625605 2.3156
upperback -2.94125 0.604116 -0.730829
thorax 1.27606 0.255606 -2.00279
lowerneck -4.76732 -0.420231 -0.488459
upperneck 5.29401 -0.776538 3.66324
head 2.52568 -0.293231 1.22987
rclavicle 6.85807e-015 -2.98177e-015
rhumerus -12.1034 -29.2189 -7.45762
rradius 20.9241
rwrist 19.8559
rhand -6.45303 -50.0369
rfingers 7.12502
rthumb 19.3968 -79.0894
lclavicle 6.85807e-015 -2.98177e-015
lhumerus 1.23371 10.0687 6.80063
lradius 20.7568
lwrist 5.98781
lhand -7.41983 -5.68989
lfingers 7.12502
lthumb 18.467 23.4535
rfemur 7.54174 16.7809 14.4685
rtibia -3.18853
rfoot -25.439 -29.6747
rtoes 4.10088
lfemur 7.57795 -9.55756 -6.63607
ltibia -2.86181
lfoot -29.4327 8.59168
ltoes 33.2512
10
root 8.90826 17.9683 -32.2303 91.441 -89.0539 -85.9568
lowerback -7.6631 0.615022 2.24382
upperback -2.97233 0.592262 -0.652642
thorax 1.25547 0.249293 -1.88271
lowerneck -4.69447 -0.417055 -0.493874
upperneck 5.29787 -0.772452 3.67071
head 2.51348 -0.291907 1.23316
rclavicle 9.93923e-017 -5.96354e-016
rhumerus -12.0266 -29.1183 -7.48278
rradius 20.9836
rwrist 19.6729
rhand -6.49034 -50.1268
rfingers 7.12502
rthumb 19.3609 -79.183
lclavicle 9.93923e-017 -5.96354e-016
lhumerus 1.19817 10.5772 6.96728
lradius 20.6364
lwrist 5.34814
lhand -7.51909 -5.85973
lfingers 7.12502
lthumb 18.3715 23.2927
rfemur 7.52742 16.8073 14.526
rtibia -3.19475
rfoot -25.4685 -29.6186
rtoes 4.76275
lfemur 7.60149 -9.62609 -6.60172
ltibia -2.90038
lfoot -29.5556 8.59355
ltoes 33.3978
11
root 8.90697 17.9686 -32.2298 92.6005 -89.0038 -87.1027
lowerback -7.68869 0.60535 2.06437
upperback -3.00509 0.587731 -0.486049
thorax 1.23249 0.247564 -1.61032
lowerneck -4.63204 -0.409378 -0.48238
upperneck 5.32818 -0.754432 3.535
head 2.51004 -0.286803 1.18785
rclavicle -2.60905e-015 4.96962e-015
rhumerus -11.9359 -28.8334 -7.37583
rradius 21.0489
rwrist 19.3357
rhand -6.56798 -50.0915
rfingers 7.12502
rthumb 19.2863 -79.1552
lclavicle -2.60905e-015 4.96962e-015
lhumerus 1.16641 10.9641 7.24927
lradius 20.5024
lwrist 4.85106
lhand -7.58245 -5.92335
lfingers 7.12502
lthumb 18.3106 23.2348
rfemur 7.5059 16.8538 14.5916
rtibia -3.17013
rfoot -25.4742 -29.6237
rtoes 4.98206
lfemur 7.61042 -9.56196 -6.52146
ltibia -2.93485
lfoot -29.5341 8.46903
ltoes 33.7707
12
root 8.9053 17.97 -32.2293 92.8158 -88.9889 -87.2922
lowerback -7.68945 0.583619 1.90605
upperback -3.06759 0.566672 -0.380225
thorax 1.16526 0.236276 -1.41431
lowerneck -4.58687 -0.394526 -0.332759
upperneck 5.39668 -0.731759 3.30065
head 2.52042 -0.279049 1.08706
rclavicle -1.9133e-015 -1.88845e-015
rhumerus -11.8576 -28.8686 -7.32953
rradius 21.0712
rwrist 19.3313
rhand -6.56865 -49.9348
rfingers 7.12502
rthumb 19.2856 -78.9985
lclavicle -1.9133e-015 -1.88845e-015
lhumerus 1.11164 11.2298 7.41919
lradius 20.4231
lwrist 4.52341
lhand -7.5093 -5.88759
lfingers 7.12502
lthumb 18.3809 23.264
rfemur 7.46729 16.7356 14.5639
rtibia -3.17126
rfoot -25.4248 -29.5469
rtoes 4.55496
lfemur 7.58522 -9.43973 -6.46784
ltibia -2.94434
lfoot -29.4241 8.37042
ltoes 33.8812
